<svg xmlns="http://www.w3.org/2000/svg" xmlns:xlink="http://www.w3.org/1999/xlink" width="1000" zoomAndPan="magnify" viewBox="0 0 750 749.999995" height="1000" preserveAspectRatio="xMidYMid meet" version="1.0"><defs><g/><clipPath id="50939bc0c7"><path d="M 20 123.671875 L 730 123.671875 L 730 626.171875 L 20 626.171875 Z M 20 123.671875 " clip-rule="nonzero"/></clipPath></defs><g fill="#000000" fill-opacity="1"><g transform="translate(370.579672, 386.625001)"><g><path d="M 6.015625 -0.28125 C 5.566406 0.164062 5.03125 0.390625 4.40625 0.390625 C 3.789062 0.390625 3.253906 0.164062 2.796875 -0.28125 C 2.335938 -0.726562 2.109375 -1.253906 2.109375 -1.859375 C 2.109375 -2.472656 2.335938 -3.003906 2.796875 -3.453125 C 3.253906 -3.898438 3.789062 -4.125 4.40625 -4.125 C 5.03125 -4.125 5.566406 -3.898438 6.015625 -3.453125 C 6.460938 -3.003906 6.6875 -2.472656 6.6875 -1.859375 C 6.6875 -1.253906 6.460938 -0.726562 6.015625 -0.28125 Z M 6.015625 -0.28125 "/></g></g></g><g clip-path="url(#50939bc0c7)"><path fill="#fd3ff4" d="M 653.855469 326.324219 C 654.988281 318.089844 655.839844 309.71875 655.839844 301.0625 C 655.839844 203.144531 576.371094 123.671875 478.449219 123.671875 C 412.179688 123.671875 354.417969 160.144531 324.050781 213.929688 C 306.453125 203.570312 286.019531 197.464844 264.164062 197.464844 C 202.433594 197.464844 151.769531 244.863281 146.375 305.179688 C 74.144531 321.921875 20.21875 386.351562 20.21875 463.695312 C 20.21875 553.523438 93.019531 626.324219 182.847656 626.324219 L 567.144531 626.324219 C 656.976562 626.324219 729.777344 553.523438 729.777344 463.695312 C 729.777344 405.792969 699.40625 355.128906 653.855469 326.324219 Z M 276.792969 369.746094 C 279.632812 372.585938 279.632812 377.269531 276.792969 380.25 C 275.375 381.667969 273.53125 382.378906 271.542969 382.378906 C 269.699219 382.378906 267.710938 381.667969 266.292969 380.25 L 256.785156 370.742188 L 247.277344 380.25 C 245.855469 381.667969 244.011719 382.378906 242.027344 382.378906 C 240.039062 382.378906 238.195312 381.667969 236.773438 380.25 C 233.9375 377.410156 233.9375 372.726562 236.773438 369.746094 L 246.28125 360.238281 L 236.773438 350.730469 C 233.9375 347.894531 233.9375 343.210938 236.773438 340.230469 C 239.613281 337.390625 244.296875 337.390625 247.277344 340.230469 L 256.785156 349.738281 L 266.292969 340.230469 C 269.128906 337.390625 273.8125 337.390625 276.792969 340.230469 C 279.632812 343.066406 279.632812 347.75 276.792969 350.730469 L 267.285156 360.238281 Z M 454.75 520.03125 C 452.195312 523.296875 447.515625 523.722656 444.390625 521.167969 C 403.664062 488.527344 346.613281 488.527344 305.742188 521.167969 C 304.324219 522.304688 302.765625 522.730469 301.0625 522.730469 C 298.933594 522.730469 296.804688 521.734375 295.242188 519.890625 C 292.6875 516.769531 293.253906 512.085938 296.378906 509.53125 C 342.640625 472.492188 407.210938 472.492188 453.472656 509.53125 C 456.738281 512.226562 457.164062 516.769531 454.75 520.03125 Z M 513.21875 369.746094 C 516.058594 372.585938 516.058594 377.269531 513.21875 380.25 C 511.800781 381.667969 509.957031 382.378906 507.96875 382.378906 C 505.980469 382.378906 504.136719 381.667969 502.71875 380.25 L 493.210938 370.742188 L 483.703125 380.25 C 482.28125 381.667969 480.4375 382.378906 478.449219 382.378906 C 476.605469 382.378906 474.617188 381.667969 473.199219 380.25 C 470.363281 377.410156 470.363281 372.726562 473.199219 369.746094 L 482.707031 360.238281 L 473.199219 350.730469 C 470.363281 347.894531 470.363281 343.210938 473.199219 340.230469 C 476.039062 337.390625 480.722656 337.390625 483.703125 340.230469 L 493.210938 349.738281 L 502.71875 340.230469 C 505.554688 337.390625 510.238281 337.390625 513.21875 340.230469 C 516.058594 343.066406 516.058594 347.75 513.21875 350.730469 L 503.710938 360.238281 Z M 513.21875 369.746094 " fill-opacity="1" fill-rule="nonzero"/></g></svg>