<svg viewBox="0 0 64 64" id="Layer_1" version="1.1" xml:space="preserve" xmlns="http://www.w3.org/2000/svg" xmlns:xlink="http://www.w3.org/1999/xlink" fill="#ff0000"><g id="SVGRepo_bgCarrier" stroke-width="0"></g><g id="SVGRepo_tracerCarrier" stroke-linecap="round" stroke-linejoin="round"></g><g id="SVGRepo_iconCarrier"> <style type="text/css"> .st0{fill:#ffffff;} .st1{fill:#ffffff;} .st2{fill:#ffffff;} .st3{fill:#ffffff;} .st4{fill:#ffffff;} .st5{fill:#ffffff;} .st6{fill:#ffffff;} .st7{fill:#fffffff030f;} .st8{fill:#ffffff;} .st9{fill:#ffffffc212c;} .st10{fill:#ffffff;} .st11{fill:#ffffffa141f;} .st12{fill:#ffffff;} .st13{fill:#ffffff;} .st14{fill:#ffffff;} </style> <g> <path class="st7" d="M21.04,20.63c0,0-1.79,8.99-0.96,11.47c0,0,1.1-13.6,11.67-24.1c0,0-0.34,8.79,5.15,13.25s6.73,11.4,6.73,11.4 s0.62-4.74-1.24-12.33c0,0,11.67,12.12,6.32,25.65c0,0-6.45,14.9-24.92,8.38S17.74,22.97,21.04,20.63z"></path> <path class="st4" d="M40.75,32.12c0.17,3.81-1.55,4.81-2.94,5.01c-0.89,0.13-1.79-0.1-2.57-0.53c-7.65-4.15-3.72-14.29-3.72-14.29 c-5.01,4.79-2.4,14.74-2.4,14.74s1.55,5.64-1.62,6.13c-1.59,0.25-2.33-0.39-2.67-1.08c-0.31-0.64-0.31-1.39-0.04-2.05 c2.15-5.34,0.31-8.36,0.31-8.36c-1.03,3.06-2.12,5.08-2.91,6.29c-1.12,1.72-1.83,3.68-1.93,5.73C19.9,51.35,26.3,54.4,26.3,54.4 c10.51,5.36,15.23-4.44,15.23-4.44C46.96,39.52,40.75,32.12,40.75,32.12z"></path> </g> </g></svg>
