<svg xmlns="http://www.w3.org/2000/svg" xmlns:xlink="http://www.w3.org/1999/xlink" width="300" zoomAndPan="magnify" viewBox="0 0 224.87999 225" height="300" preserveAspectRatio="xMidYMid meet" version="1.0"><defs><g/><clipPath id="093d7225dd"><path d="M 11.242188 67 L 87 67 L 87 127 L 11.242188 127 Z M 11.242188 67 " clip-rule="nonzero"/></clipPath><clipPath id="aab4b03aae"><path d="M 11.242188 118 L 87 118 L 87 157 L 11.242188 157 Z M 11.242188 118 " clip-rule="nonzero"/></clipPath><clipPath id="3bcccdfe81"><path d="M 11.242188 148 L 89 148 L 89 187 L 11.242188 187 Z M 11.242188 148 " clip-rule="nonzero"/></clipPath><clipPath id="2d6e9bf8b1"><path d="M 96 22 L 213.636719 22 L 213.636719 82 L 96 82 Z M 96 22 " clip-rule="nonzero"/></clipPath><clipPath id="e7a34d95ff"><path d="M 96 73 L 213.636719 73 L 213.636719 112 L 96 112 Z M 96 73 " clip-rule="nonzero"/></clipPath><clipPath id="e4c74b84ab"><path d="M 96 103 L 213.636719 103 L 213.636719 142 L 96 142 Z M 96 103 " clip-rule="nonzero"/></clipPath><clipPath id="4e39a77193"><path d="M 96 134 L 213.636719 134 L 213.636719 173 L 96 173 Z M 96 134 " clip-rule="nonzero"/></clipPath><clipPath id="9c70bd600b"><path d="M 96 164 L 213.636719 164 L 213.636719 203 L 96 203 Z M 96 164 " clip-rule="nonzero"/></clipPath></defs><g fill="#000000" fill-opacity="1"><g transform="translate(111.123499, 127.991739)"><g><path d="M 1.3125 0.046875 C 1.125 0.046875 0.976562 -0.00390625 0.875 -0.109375 C 0.769531 -0.210938 0.71875 -0.347656 0.71875 -0.515625 C 0.71875 -0.691406 0.769531 -0.832031 0.875 -0.9375 C 0.976562 -1.050781 1.125 -1.109375 1.3125 -1.109375 C 1.5 -1.109375 1.644531 -1.054688 1.75 -0.953125 C 1.863281 -0.847656 1.921875 -0.707031 1.921875 -0.53125 C 1.921875 -0.351562 1.863281 -0.210938 1.75 -0.109375 C 1.644531 -0.00390625 1.5 0.046875 1.3125 0.046875 Z M 1.3125 0.046875 "/></g></g></g><g clip-path="url(#093d7225dd)"><path fill="#ff19c6" d="M 70.046875 126.878906 C 75.734375 126.878906 81.234375 126.511719 86.433594 125.828125 L 86.433594 68.804688 C 81.234375 68.121094 75.734375 67.753906 70.046875 67.753906 C 37.570312 67.753906 11.246094 79.691406 11.246094 94.421875 L 11.246094 100.207031 C 11.246094 114.9375 37.570312 126.878906 70.046875 126.878906 Z M 70.046875 126.878906 " fill-opacity="1" fill-rule="nonzero"/></g><g clip-path="url(#aab4b03aae)"><path fill="#ff19c6" d="M 70.046875 156.652344 C 75.734375 156.652344 81.234375 156.285156 86.433594 155.601562 L 86.433594 138.886719 C 81.230469 139.570312 75.738281 139.945312 70.046875 139.945312 C 41.699219 139.945312 18.039062 130.84375 12.480469 118.734375 C 11.671875 120.5 11.246094 122.328125 11.246094 124.199219 L 11.246094 129.984375 C 11.246094 144.710938 37.570312 156.652344 70.046875 156.652344 Z M 70.046875 156.652344 " fill-opacity="1" fill-rule="nonzero"/></g><g clip-path="url(#3bcccdfe81)"><path fill="#ff19c6" d="M 86.433594 169.964844 L 86.433594 168.664062 C 81.230469 169.347656 75.734375 169.71875 70.046875 169.71875 C 41.699219 169.71875 18.039062 160.621094 12.480469 148.511719 C 11.671875 150.277344 11.242188 152.101562 11.242188 153.972656 L 11.242188 159.757812 C 11.242188 174.488281 37.570312 186.429688 70.046875 186.429688 C 76.542969 186.429688 82.789062 185.949219 88.628906 185.066406 C 87.179688 182.105469 86.433594 178.984375 86.433594 175.746094 Z M 86.433594 169.964844 " fill-opacity="1" fill-rule="nonzero"/></g><g clip-path="url(#2d6e9bf8b1)"><path fill="#ff19c6" d="M 154.832031 22.582031 C 122.355469 22.582031 96.03125 34.523438 96.03125 49.253906 L 96.03125 55.035156 C 96.03125 69.765625 122.355469 81.707031 154.832031 81.707031 C 187.308594 81.707031 213.636719 69.765625 213.636719 55.035156 L 213.636719 49.253906 C 213.636719 34.523438 187.308594 22.582031 154.832031 22.582031 Z M 154.832031 22.582031 " fill-opacity="1" fill-rule="nonzero"/></g><g clip-path="url(#e7a34d95ff)"><path fill="#ff19c6" d="M 154.832031 94.773438 C 126.484375 94.773438 102.824219 85.675781 97.265625 73.566406 C 96.457031 75.328125 96.03125 77.15625 96.03125 79.027344 L 96.03125 84.8125 C 96.03125 99.542969 122.355469 111.484375 154.832031 111.484375 C 187.308594 111.484375 213.636719 99.542969 213.636719 84.8125 L 213.636719 79.027344 C 213.636719 77.15625 213.207031 75.328125 212.398438 73.566406 C 206.839844 85.675781 183.179688 94.773438 154.832031 94.773438 Z M 154.832031 94.773438 " fill-opacity="1" fill-rule="nonzero"/></g><g clip-path="url(#e4c74b84ab)"><path fill="#ff19c6" d="M 154.832031 124.550781 C 126.484375 124.550781 102.824219 115.453125 97.265625 103.34375 C 96.457031 105.105469 96.03125 106.933594 96.03125 108.804688 L 96.03125 114.589844 C 96.03125 129.320312 122.355469 141.257812 154.832031 141.257812 C 187.308594 141.257812 213.636719 129.320312 213.636719 114.589844 L 213.636719 108.804688 C 213.636719 106.933594 213.207031 105.105469 212.398438 103.34375 C 206.839844 115.453125 183.179688 124.550781 154.832031 124.550781 Z M 154.832031 124.550781 " fill-opacity="1" fill-rule="nonzero"/></g><g clip-path="url(#4e39a77193)"><path fill="#ff19c6" d="M 154.832031 155.933594 C 126.484375 155.933594 102.824219 146.835938 97.265625 134.726562 C 96.457031 136.488281 96.03125 138.316406 96.03125 140.1875 L 96.03125 145.972656 C 96.03125 160.703125 122.355469 172.640625 154.832031 172.640625 C 187.308594 172.640625 213.636719 160.703125 213.636719 145.972656 L 213.636719 140.1875 C 213.636719 138.316406 213.207031 136.488281 212.398438 134.726562 C 206.839844 146.832031 183.179688 155.933594 154.832031 155.933594 Z M 154.832031 155.933594 " fill-opacity="1" fill-rule="nonzero"/></g><g clip-path="url(#9c70bd600b)"><path fill="#ff19c6" d="M 154.832031 185.707031 C 126.484375 185.707031 102.824219 176.609375 97.265625 164.5 C 96.457031 166.265625 96.03125 168.09375 96.03125 169.964844 L 96.03125 175.746094 C 96.03125 190.476562 122.355469 202.417969 154.832031 202.417969 C 187.308594 202.417969 213.636719 190.476562 213.636719 175.746094 L 213.636719 169.960938 C 213.636719 168.089844 213.207031 166.265625 212.398438 164.5 C 206.839844 176.609375 183.179688 185.707031 154.832031 185.707031 Z M 154.832031 185.707031 " fill-opacity="1" fill-rule="nonzero"/></g></svg>
