<svg xmlns="http://www.w3.org/2000/svg" xmlns:xlink="http://www.w3.org/1999/xlink" width="1000" zoomAndPan="magnify" viewBox="0 0 750 749.999995" height="1000" preserveAspectRatio="xMidYMid meet" version="1.0"><defs><g/><clipPath id="3fc959d314"><path d="M 327 594 L 423 594 L 423 689.816406 L 327 689.816406 Z M 327 594 " clip-rule="nonzero"/></clipPath></defs><g fill="#000000" fill-opacity="1"><g transform="translate(370.579672, 319.209292)"><g><path d="M 6.015625 -0.28125 C 5.566406 0.164062 5.03125 0.390625 4.40625 0.390625 C 3.789062 0.390625 3.253906 0.164062 2.796875 -0.28125 C 2.335938 -0.726562 2.109375 -1.253906 2.109375 -1.859375 C 2.109375 -2.472656 2.335938 -3.003906 2.796875 -3.453125 C 3.253906 -3.898438 3.789062 -4.125 4.40625 -4.125 C 5.03125 -4.125 5.566406 -3.898438 6.015625 -3.453125 C 6.460938 -3.003906 6.6875 -2.472656 6.6875 -1.859375 C 6.6875 -1.253906 6.460938 -0.726562 6.015625 -0.28125 Z M 6.015625 -0.28125 "/></g></g></g><path fill="#fd3ff4" d="M 185.390625 218.167969 C 134.429688 241.167969 87.53125 273.195312 46.492188 314.230469 C 36.121094 324.601562 36.121094 341.730469 46.492188 352.113281 C 51.902344 357.519531 58.667969 360.226562 65.882812 360.226562 C 72.648438 360.226562 79.414062 357.519531 84.824219 352.113281 C 118.195312 318.730469 156.074219 292.132812 197.566406 272.730469 C 190.800781 255.601562 186.742188 237.113281 185.390625 218.167969 Z M 185.390625 218.167969 " fill-opacity="1" fill-rule="nonzero"/><path fill="#fd3ff4" d="M 703.097656 313.777344 C 662.511719 273.195312 615.160156 240.714844 564.203125 218.167969 C 562.847656 237.117188 558.789062 255.148438 552.023438 272.292969 C 593.515625 292.132812 631.847656 318.734375 665.21875 352.113281 C 675.589844 362.484375 692.726562 362.484375 703.097656 352.113281 C 713.921875 341.28125 713.921875 324.148438 703.097656 313.777344 Z M 703.097656 313.777344 " fill-opacity="1" fill-rule="nonzero"/><path fill="#fd3ff4" d="M 245.367188 343.988281 C 208.839844 359.324219 174.566406 382.324219 144.800781 412.085938 C 134.429688 422.90625 134.429688 440.050781 144.800781 450.421875 C 150.210938 455.828125 156.980469 458.535156 163.742188 458.535156 C 170.957031 458.535156 177.722656 455.828125 183.136719 450.421875 C 217.859375 416.148438 259.347656 392.695312 303.542969 380.972656 C 281.898438 372.40625 262.054688 359.777344 245.367188 343.988281 Z M 245.367188 343.988281 " fill-opacity="1" fill-rule="nonzero"/><path fill="#fd3ff4" d="M 504.222656 343.988281 C 487.539062 359.777344 468.148438 372.40625 446.5 380.96875 C 490.695312 392.695312 532.183594 415.695312 566.910156 450.421875 C 577.28125 460.792969 594.417969 460.792969 605.238281 450.421875 C 615.609375 439.597656 615.609375 422.457031 605.238281 412.085938 C 575.476562 382.324219 541.203125 359.324219 504.222656 343.988281 Z M 504.222656 343.988281 " fill-opacity="1" fill-rule="nonzero"/><path fill="#fd3ff4" d="M 243.03125 510.546875 C 232.460938 521.117188 232.460938 538.246094 243.03125 548.816406 C 248.316406 554.101562 255.253906 556.746094 262.167969 556.746094 C 269.082031 556.746094 276.019531 554.101562 281.300781 548.816406 C 332.984375 497.125 417.011719 496.960938 468.558594 548.542969 C 479.128906 559.113281 496.261719 559.113281 506.828125 548.542969 C 517.398438 537.972656 517.398438 520.839844 506.828125 510.273438 C 434.121094 437.59375 315.785156 437.75 243.03125 510.546875 Z M 243.03125 510.546875 " fill-opacity="1" fill-rule="nonzero"/><g clip-path="url(#3fc959d314)"><path fill="#fd3ff4" d="M 374.886719 594.730469 C 348.75 594.730469 327.5 615.988281 327.5 642.105469 C 327.5 668.441406 348.75 689.875 374.886719 689.875 C 401.222656 689.875 422.648438 668.441406 422.648438 642.105469 C 422.648438 615.988281 401.222656 594.730469 374.886719 594.730469 Z M 374.886719 594.730469 " fill-opacity="1" fill-rule="nonzero"/></g><path fill="#fd3ff4" d="M 374.929688 349.800781 C 454.921875 349.800781 519.769531 284.953125 519.769531 204.957031 C 519.769531 124.957031 454.921875 60.121094 374.929688 60.121094 C 294.9375 60.121094 230.09375 124.96875 230.09375 204.957031 C 230.09375 284.941406 294.941406 349.800781 374.929688 349.800781 Z M 316.511719 172.035156 C 309.464844 165 309.464844 153.570312 316.511719 146.523438 C 323.558594 139.5 334.964844 139.492188 342.011719 146.535156 L 374.929688 179.457031 L 407.851562 146.535156 C 414.894531 139.492188 426.300781 139.480469 433.347656 146.523438 C 440.394531 153.570312 440.394531 165 433.347656 172.035156 L 400.425781 204.953125 L 433.347656 237.886719 C 440.394531 244.921875 440.394531 256.347656 433.347656 263.394531 C 429.824219 266.90625 425.222656 268.667969 420.601562 268.667969 C 415.976562 268.667969 411.375 266.90625 407.851562 263.382812 L 374.929688 230.464844 L 342.011719 263.382812 C 338.488281 266.90625 333.886719 268.667969 329.261719 268.667969 C 324.636719 268.667969 320.035156 266.90625 316.511719 263.394531 C 309.46875 256.347656 309.46875 244.921875 316.511719 237.886719 L 349.433594 204.953125 Z M 316.511719 172.035156 " fill-opacity="1" fill-rule="nonzero"/></svg>