<svg xmlns="http://www.w3.org/2000/svg" xmlns:xlink="http://www.w3.org/1999/xlink" width="1000" zoomAndPan="magnify" viewBox="0 0 750 749.999995" height="1000" preserveAspectRatio="xMidYMid meet" version="1.0"><defs><g/><clipPath id="632bfb6684"><path d="M 75 178.125 L 675 178.125 L 675 571.875 L 75 571.875 Z M 75 178.125 " clip-rule="nonzero"/></clipPath></defs><g clip-path="url(#632bfb6684)"><path fill="#fd3ff4" d="M 583.265625 178.125 L 166.734375 178.125 C 116.257812 178.125 75.25 219.128906 75.25 269.609375 L 75.25 480.390625 C 75.25 530.871094 116.257812 571.875 166.734375 571.875 L 583.265625 571.875 C 633.742188 571.875 674.75 530.871094 674.75 480.390625 L 674.75 269.609375 C 674.75 219.128906 633.742188 178.125 583.265625 178.125 Z M 313.371094 481.832031 L 313.371094 268.289062 L 498.257812 375.121094 L 313.371094 481.949219 Z M 313.371094 481.832031 " fill-opacity="1" fill-rule="nonzero"/></g><g fill="#f277e8" fill-opacity="1"><g transform="translate(349.39847, 195.37501)"><g><path d="M 3.671875 0.140625 C 3.160156 0.140625 2.753906 -0.00390625 2.453125 -0.296875 C 2.148438 -0.585938 2 -0.976562 2 -1.46875 C 2 -1.9375 2.148438 -2.320312 2.453125 -2.625 C 2.753906 -2.9375 3.160156 -3.09375 3.671875 -3.09375 C 4.203125 -3.09375 4.617188 -2.945312 4.921875 -2.65625 C 5.222656 -2.363281 5.375 -1.972656 5.375 -1.484375 C 5.375 -1.003906 5.21875 -0.613281 4.90625 -0.3125 C 4.601562 -0.0078125 4.191406 0.140625 3.671875 0.140625 Z M 3.671875 0.140625 "/></g></g></g></svg>
