<svg xmlns="http://www.w3.org/2000/svg" xmlns:xlink="http://www.w3.org/1999/xlink" width="300" zoomAndPan="magnify" viewBox="0 0 224.87999 225" height="300" preserveAspectRatio="xMidYMid meet" version="1.0"><defs><g/><clipPath id="f8a5d6cf84"><path d="M 22.488281 22.546875 L 202.390625 22.546875 L 202.390625 202.453125 L 22.488281 202.453125 Z M 22.488281 22.546875 " clip-rule="nonzero"/></clipPath><clipPath id="c7b22e3e00"><path d="M 32.3125 50.601562 L 192.726562 50.601562 L 192.726562 174.285156 L 32.3125 174.285156 Z M 32.3125 50.601562 " clip-rule="nonzero"/></clipPath></defs><g fill="#000000" fill-opacity="1"><g transform="translate(53.359224, 176.695239)"><g><path d="M 1.3125 -0.0625 C 1.21875 0.03125 1.101562 0.078125 0.96875 0.078125 C 0.832031 0.078125 0.710938 0.03125 0.609375 -0.0625 C 0.515625 -0.15625 0.46875 -0.269531 0.46875 -0.40625 C 0.46875 -0.539062 0.515625 -0.65625 0.609375 -0.75 C 0.710938 -0.851562 0.832031 -0.90625 0.96875 -0.90625 C 1.101562 -0.90625 1.21875 -0.851562 1.3125 -0.75 C 1.414062 -0.65625 1.46875 -0.539062 1.46875 -0.40625 C 1.46875 -0.269531 1.414062 -0.15625 1.3125 -0.0625 Z M 1.3125 -0.0625 "/></g></g></g><g clip-path="url(#f8a5d6cf84)"><path fill="#ffffff" d="M 202.390625 182.460938 C 202.390625 193.5 193.441406 202.453125 182.402344 202.453125 L 42.476562 202.453125 C 31.4375 202.453125 22.488281 193.5 22.488281 182.460938 L 22.488281 42.539062 C 22.488281 31.5 31.4375 22.546875 42.476562 22.546875 L 182.402344 22.546875 C 193.441406 22.546875 202.390625 31.5 202.390625 42.539062 Z M 202.390625 182.460938 " fill-opacity="1" fill-rule="nonzero"/></g><g clip-path="url(#c7b22e3e00)"><path fill="#fd3ff4" d="M 137.746094 50.640625 L 112.4375 80.410156 L 87.128906 50.640625 L 32.3125 50.640625 L 85.03125 112.496094 L 32.3125 174.351562 L 87.128906 174.351562 L 112.4375 144.582031 L 137.746094 174.351562 L 192.5625 174.351562 L 139.847656 112.496094 L 192.5625 50.640625 Z M 137.746094 50.640625 " fill-opacity="1" fill-rule="nonzero"/></g></svg>