<svg xmlns="http://www.w3.org/2000/svg" xmlns:xlink="http://www.w3.org/1999/xlink" width="1000" zoomAndPan="magnify" viewBox="0 0 750 749.999995" height="1000" preserveAspectRatio="xMidYMid meet" version="1.0"><defs><g/><clipPath id="e66d9ead3e"><path d="M 324 132 L 392 132 L 392 141 L 324 141 Z M 324 132 " clip-rule="nonzero"/></clipPath></defs><g fill="#000000" fill-opacity="1"><g transform="translate(370.579672, 386.625001)"><g><path d="M 6.015625 -0.28125 C 5.566406 0.164062 5.03125 0.390625 4.40625 0.390625 C 3.789062 0.390625 3.253906 0.164062 2.796875 -0.28125 C 2.335938 -0.726562 2.109375 -1.253906 2.109375 -1.859375 C 2.109375 -2.472656 2.335938 -3.003906 2.796875 -3.453125 C 3.253906 -3.898438 3.789062 -4.125 4.40625 -4.125 C 5.03125 -4.125 5.566406 -3.898438 6.015625 -3.453125 C 6.460938 -3.003906 6.6875 -2.472656 6.6875 -1.859375 C 6.6875 -1.253906 6.460938 -0.726562 6.015625 -0.28125 Z M 6.015625 -0.28125 "/></g></g></g><path fill="#fd3ff4" d="M 251.4375 164.03125 C 251.960938 162.332031 252.734375 161.257812 253.75 160.78125 L 267.417969 154.828125 C 280.25 150.191406 297.53125 144.441406 310.667969 140.746094 L 317.121094 139.261719 C 316.039062 139.6875 315.210938 140.773438 314.671875 142.535156 C 304.824219 145.957031 291.726562 150.632812 282.128906 154.699219 C 272.855469 157.261719 260.5 160.792969 251.4375 164.03125 " fill-opacity="1" fill-rule="nonzero"/><path fill="#fd3ff4" d="M 187.429688 203.902344 C 187.820312 202.640625 188.355469 201.730469 189.039062 201.175781 L 189.269531 200.988281 C 215.101562 181.707031 215.597656 181.335938 230.121094 173.003906 L 244.453125 165.289062 C 243.480469 165.78125 242.734375 166.84375 242.230469 168.484375 C 233.34375 174.152344 221.535156 181.804688 213.039062 188.035156 C 205.230469 192.59375 194.863281 198.765625 187.429688 203.902344 " fill-opacity="1" fill-rule="nonzero"/><path fill="#fd3ff4" d="M 663.574219 310.5625 L 663.84375 310.746094 L 669.824219 325.167969 L 663.574219 310.5625 " fill-opacity="1" fill-rule="nonzero"/><path fill="#fd3ff4" d="M 644.121094 276.664062 C 644.21875 276.34375 644.371094 276.148438 644.566406 276.074219 C 649.652344 284.664062 656.355469 296.179688 660.925781 305.058594 L 669.824219 325.167969 L 660.574219 305.535156 C 655.78125 296.792969 649.320312 285.167969 644.121094 276.664062 " fill-opacity="1" fill-rule="nonzero"/><path fill="#fd3ff4" d="M 596.390625 219.675781 C 596.613281 218.945312 596.953125 218.496094 597.402344 218.320312 C 604.316406 225.199219 613.472656 234.441406 619.976562 241.707031 C 625.832031 249.394531 633.582031 259.695312 639.058594 267.664062 C 638.828125 267.753906 638.648438 267.984375 638.53125 268.359375 C 632.667969 260.855469 624.765625 250.894531 618.433594 243.777344 C 611.933594 236.445312 603.210938 226.707031 596.390625 219.675781 " fill-opacity="1" fill-rule="nonzero"/><path fill="#fd3ff4" d="M 537.5625 176.328125 C 537.898438 175.238281 538.40625 174.5625 539.082031 174.296875 C 547.417969 179.304688 558.496094 186.0625 566.527344 191.546875 C 573.75 197.445312 583.332031 205.386719 590.234375 211.65625 C 589.757812 211.847656 589.390625 212.328125 589.152344 213.105469 C 581.707031 207.523438 571.714844 200.140625 563.917969 195.054688 C 556.101562 189.308594 545.640625 181.699219 537.5625 176.328125 " fill-opacity="1" fill-rule="nonzero"/><path fill="#fd3ff4" d="M 470.636719 147.859375 C 471.066406 146.464844 471.710938 145.605469 472.574219 145.269531 C 481.929688 148.246094 494.390625 152.308594 503.550781 155.839844 C 511.765625 159.785156 522.6875 165.140625 530.660156 169.554688 C 529.960938 169.828125 529.429688 170.527344 529.078125 171.664062 C 520.441406 168.132812 508.878906 163.515625 500.027344 160.570312 C 491.28125 156.601562 479.578125 151.371094 470.636719 147.859375 " fill-opacity="1" fill-rule="nonzero"/><path fill="#fd3ff4" d="M 398.621094 135.503906 C 399.117188 133.882812 399.871094 132.890625 400.871094 132.5 C 410.570312 133.269531 423.511719 134.347656 433.144531 135.703125 L 434.472656 135.917969 C 443.160156 137.738281 454.742188 140.246094 463.292969 142.617188 C 462.414062 142.957031 461.75 143.835938 461.308594 145.265625 C 451.871094 143.921875 439.265625 142.238281 429.757812 141.542969 C 420.457031 139.542969 408.023438 136.953125 398.621094 135.503906 " fill-opacity="1" fill-rule="nonzero"/><g clip-path="url(#e66d9ead3e)"><path fill="#fd3ff4" d="M 324.503906 140.503906 C 325.042969 138.746094 325.863281 137.667969 326.945312 137.25 L 339.71875 135.050781 C 347.152344 134.265625 357.039062 132.929688 364.5 132.441406 L 373.636719 131.988281 L 391.125 132.09375 C 390.109375 132.488281 389.347656 133.5 388.839844 135.144531 C 379.003906 136.117188 365.878906 137.535156 356.125 139.183594 C 346.632812 139.351562 333.96875 139.6875 324.503906 140.503906 " fill-opacity="1" fill-rule="nonzero"/></g><path fill="#fd3ff4" d="M 136.621094 256.417969 C 136.855469 255.648438 137.15625 255.023438 137.511719 254.542969 C 142.449219 248.515625 148.847656 240.316406 154.035156 234.5 C 162.058594 226.230469 172.890625 215.324219 181.414062 207.578125 C 180.777344 208.132812 180.273438 209.007812 179.902344 210.210938 C 172.691406 217.554688 163.148438 227.433594 156.394531 235.199219 C 150.296875 241.40625 142.238281 249.773438 136.621094 256.417969 " fill-opacity="1" fill-rule="nonzero"/><path fill="#fd3ff4" d="M 663.289062 311.542969 C 663.265625 311.320312 663.253906 311.140625 663.257812 310.996094 L 669.824219 325.167969 L 663.289062 311.542969 " fill-opacity="1" fill-rule="nonzero"/><path fill="#fd3ff4" d="M 622.347656 251.863281 C 622.207031 250.625 622.152344 249.589844 622.1875 248.761719 C 628.234375 256.054688 636.226562 265.859375 641.796875 273.523438 C 646.988281 281.996094 653.851562 293.335938 658.644531 302.039062 C 658.636719 302.28125 658.652344 302.578125 658.691406 302.933594 C 653.867188 295.210938 647.355469 284.945312 642.003906 277.570312 C 636.222656 269.773438 626.09375 260.820312 622.347656 251.863281 " fill-opacity="1" fill-rule="nonzero"/><path fill="#fd3ff4" d="M 568.777344 204.824219 C 568.53125 202.652344 568.441406 200.855469 568.503906 199.410156 C 576.070312 204.6875 586.105469 211.816406 593.304688 217.585938 C 600.136719 224.636719 609.207031 234.09375 615.71875 241.441406 C 615.683594 242.355469 615.738281 243.496094 615.894531 244.867188 C 609.402344 239.183594 600.667969 231.664062 593.765625 226.492188 C 586.355469 219.890625 573.511719 213.539062 568.777344 204.824219 " fill-opacity="1" fill-rule="nonzero"/><path fill="#fd3ff4" d="M 505.582031 171.527344 C 505.246094 168.574219 505.125 166.109375 505.207031 164.136719 C 513.890625 167.28125 525.441406 171.578125 533.886719 175.3125 C 541.984375 180.753906 552.746094 188.082031 560.589844 193.886719 C 560.523438 195.410156 560.621094 197.304688 560.878906 199.585938 C 553.078125 196.042969 542.621094 191.402344 534.566406 188.484375 C 525.945312 183.28125 514.410156 176.386719 505.582031 171.527344 " fill-opacity="1" fill-rule="nonzero"/><path fill="#fd3ff4" d="M 435.765625 153.113281 C 435.363281 149.523438 435.21875 146.539062 435.316406 144.144531 C 444.710938 145.054688 457.242188 146.375 466.546875 147.929688 C 475.523438 151.570312 487.464844 156.496094 496.25 160.578125 C 496.164062 162.617188 496.289062 165.15625 496.632812 168.203125 C 487.902344 166.890625 476.21875 165.25 467.414062 164.621094 C 457.976562 161.019531 445.359375 156.289062 435.765625 153.113281 " fill-opacity="1" fill-rule="nonzero"/><path fill="#fd3ff4" d="M 362.332031 150.691406 C 361.878906 146.671875 361.707031 143.320312 361.824219 140.636719 C 371.535156 139.21875 384.511719 137.417969 394.300781 136.667969 C 403.757812 138.292969 416.359375 140.546875 425.703125 142.707031 C 425.605469 145.152344 425.753906 148.191406 426.167969 151.847656 C 416.878906 152.84375 404.484375 154.292969 395.292969 155.976562 C 385.4375 154.207031 372.269531 151.929688 362.332031 150.691406 " fill-opacity="1" fill-rule="nonzero"/><path fill="#fd3ff4" d="M 288.269531 165.378906 C 287.789062 161.152344 287.617188 157.632812 287.730469 154.808594 C 297.363281 150.96875 310.257812 145.941406 320.132812 142.757812 C 329.664062 142.152344 342.398438 141.445312 351.957031 141.476562 C 351.84375 144.1875 352.011719 147.570312 352.472656 151.628906 C 343.007812 155 330.417969 159.613281 321.207031 163.609375 C 311.3125 163.921875 298.117188 164.429688 288.269531 165.378906 " fill-opacity="1" fill-rule="nonzero"/><path fill="#fd3ff4" d="M 218.425781 197.3125 C 217.953125 193.125 217.777344 189.648438 217.898438 186.855469 C 226.574219 180.789062 238.226562 172.789062 247.289062 167.300781 C 256.433594 164.300781 268.675781 160.40625 278.019531 158.082031 C 277.898438 160.910156 278.074219 164.441406 278.554688 168.675781 C 269.371094 174.417969 257.179688 182.179688 248.382812 188.488281 C 239.332031 190.914062 227.277344 194.246094 218.425781 197.3125 " fill-opacity="1" fill-rule="nonzero"/><path fill="#fd3ff4" d="M 160.714844 242.632812 C 160.273438 238.742188 160.113281 235.503906 160.222656 232.910156 C 167.191406 225.246094 176.5625 215.09375 183.976562 207.871094 C 191.503906 202.972656 201.613281 196.535156 209.488281 192.230469 C 209.375 195.007812 209.542969 198.464844 210.015625 202.625 C 202.367188 210.121094 192.234375 220.195312 185.019531 228.113281 C 177.609375 232.261719 167.765625 237.894531 160.714844 242.632812 " fill-opacity="1" fill-rule="nonzero"/><path fill="#fd3ff4" d="M 116.816406 298.355469 C 116.429688 294.972656 116.292969 292.152344 116.386719 289.894531 C 121.484375 281.074219 128.367188 269.359375 133.957031 260.84375 C 139.675781 254.410156 147.386719 245.886719 153.582031 239.90625 C 153.476562 242.46875 153.636719 245.660156 154.066406 249.496094 C 148.15625 258.242188 140.34375 269.960938 134.890625 278.992188 C 129.296875 284.636719 121.90625 292.253906 116.816406 298.355469 " fill-opacity="1" fill-rule="nonzero"/><path fill="#fd3ff4" d="M 87.953125 361.617188 C 87.648438 358.921875 87.539062 356.683594 87.613281 354.882812 C 90.683594 345.335938 94.863281 332.625 98.445312 323.253906 C 102.226562 315.621094 107.359375 305.46875 111.679688 298.121094 C 111.582031 300.324219 111.722656 303.074219 112.09375 306.375 C 108.074219 315.894531 102.785156 328.632812 99.222656 338.332031 C 95.644531 345.21875 90.960938 354.460938 87.953125 361.617188 " fill-opacity="1" fill-rule="nonzero"/><path fill="#fd3ff4" d="M 75.359375 429.582031 C 75.152344 427.730469 75.074219 426.191406 75.125 424.957031 L 75.320312 421.722656 L 76.625 407.023438 L 79.296875 388.429688 C 80.90625 381.0625 82.976562 371.214844 84.992188 363.953125 C 84.921875 365.679688 85.03125 367.835938 85.320312 370.425781 C 83.335938 380.269531 80.761719 393.417969 79.246094 403.34375 C 77.878906 411.1875 76.152344 421.664062 75.359375 429.582031 " fill-opacity="1" fill-rule="nonzero"/><path fill="#fd3ff4" d="M 645.015625 284.484375 C 644.976562 284.320312 644.941406 284.15625 644.898438 283.996094 C 644.675781 283 644.496094 282.09375 644.351562 281.289062 C 649.417969 288.773438 656.085938 298.820312 660.628906 306.632812 L 669.824219 325.167969 L 661.15625 309.175781 C 656.4375 301.691406 648.613281 292.574219 645.015625 284.484375 " fill-opacity="1" fill-rule="nonzero"/><path fill="#fd3ff4" d="M 598.4375 237.640625 C 598.347656 237.257812 598.265625 236.882812 598.179688 236.515625 C 597.664062 234.226562 597.242188 232.15625 596.917969 230.304688 C 603.59375 235.613281 612.425781 242.792969 618.667969 248.601562 C 624.820312 256.078125 632.972656 266.089844 638.808594 273.824219 C 638.972656 274.773438 639.1875 275.832031 639.453125 277.007812 C 639.496094 277.195312 639.542969 277.390625 639.585938 277.585938 C 634.167969 272.058594 626.859375 264.742188 620.976562 259.710938 C 614.292969 253.007812 603.167969 245.835938 598.4375 237.640625 " fill-opacity="1" fill-rule="nonzero"/><path fill="#fd3ff4" d="M 540.632812 203.222656 C 540.496094 202.660156 540.367188 202.09375 540.246094 201.539062 C 539.464844 198.117188 538.839844 195.015625 538.351562 192.246094 C 546.230469 195.316406 556.710938 199.523438 564.3125 203.21875 C 572.023438 209.496094 582.257812 217.917969 589.714844 224.488281 C 590.066406 226.46875 590.515625 228.679688 591.070312 231.128906 C 591.160156 231.527344 591.25 231.929688 591.347656 232.335938 C 584.511719 229.019531 575.335938 224.699219 568.21875 222.039062 C 560 216.308594 546.371094 211.4375 540.632812 203.222656 " fill-opacity="1" fill-rule="nonzero"/><path fill="#fd3ff4" d="M 474.550781 182.148438 C 474.378906 181.425781 474.214844 180.710938 474.054688 180.003906 C 473.066406 175.632812 472.265625 171.6875 471.644531 168.15625 C 480.34375 168.945312 491.949219 170.109375 500.5625 171.589844 C 509.429688 176.460938 521.226562 183.015625 529.902344 188.222656 C 530.410156 191.101562 531.0625 194.320312 531.867188 197.886719 C 532 198.464844 532.132812 199.050781 532.269531 199.640625 C 524.367188 198.601562 513.800781 197.324219 505.832031 196.984375 C 496.492188 192.433594 484.019531 186.414062 474.550781 182.148438 " fill-opacity="1" fill-rule="nonzero"/><path fill="#fd3ff4" d="M 403.160156 175.332031 C 402.964844 174.492188 402.777344 173.664062 402.589844 172.839844 C 401.441406 167.765625 400.511719 163.179688 399.792969 159.082031 C 408.941406 157.558594 421.167969 155.632812 430.402344 154.804688 C 440.035156 158.039062 452.863281 162.414062 462.34375 166.066406 C 462.980469 169.683594 463.796875 173.726562 464.8125 178.207031 C 464.972656 178.929688 465.144531 179.664062 465.316406 180.40625 C 456.710938 181.671875 445.234375 183.464844 436.746094 185.378906 C 426.710938 182.238281 413.308594 178.113281 403.160156 175.332031 " fill-opacity="1" fill-rule="nonzero"/><path fill="#fd3ff4" d="M 329.433594 183.679688 C 329.21875 182.769531 329.011719 181.867188 328.808594 180.976562 C 327.570312 175.476562 326.558594 170.503906 325.773438 166.058594 C 335.011719 162.214844 347.375 157.175781 356.84375 153.96875 C 366.828125 155.3125 380.132812 157.199219 390.03125 159.0625 C 390.761719 163.222656 391.703125 167.871094 392.871094 173.019531 C 393.058594 173.851562 393.253906 174.699219 393.449219 175.546875 C 384.507812 179.101562 372.617188 183.945312 363.917969 188.0625 C 353.597656 186.589844 339.808594 184.6875 329.433594 183.679688 " fill-opacity="1" fill-rule="nonzero"/><path fill="#fd3ff4" d="M 256.457031 208.039062 C 256.238281 207.109375 256.03125 206.1875 255.824219 205.277344 C 254.554688 199.675781 253.527344 194.613281 252.730469 190.078125 C 261.648438 183.914062 273.605469 175.777344 282.882812 170.179688 C 292.785156 169.378906 306.015625 168.417969 315.949219 168.25 C 316.730469 172.722656 317.746094 177.722656 319 183.253906 C 319.203125 184.15625 319.410156 185.058594 319.625 185.980469 C 310.714844 191.777344 298.878906 199.601562 290.285156 205.863281 C 280.128906 206.328125 266.578125 207.027344 256.457031 208.039062 " fill-opacity="1" fill-rule="nonzero"/><path fill="#fd3ff4" d="M 192.238281 246.085938 C 192.035156 245.195312 191.828125 244.316406 191.632812 243.445312 C 190.417969 238.074219 189.433594 233.214844 188.671875 228.871094 C 196.046875 221.042969 205.964844 210.667969 213.777344 203.269531 C 222.628906 200.410156 234.488281 196.707031 243.523438 194.480469 C 244.3125 199 245.34375 204.058594 246.609375 209.652344 C 246.8125 210.558594 247.023438 211.476562 247.238281 212.402344 C 239.25 220.0625 228.660156 230.347656 221.066406 238.398438 C 212.367188 240.511719 200.78125 243.40625 192.238281 246.085938 " fill-opacity="1" fill-rule="nonzero"/><path fill="#fd3ff4" d="M 140.949219 294.386719 C 140.765625 293.585938 140.578125 292.792969 140.40625 292.007812 C 139.308594 287.167969 138.425781 282.800781 137.734375 278.890625 C 143.382812 269.914062 150.988281 257.984375 157.078125 249.300781 C 164.167969 244.78125 173.699219 238.847656 181.128906 234.925781 C 181.886719 239.222656 182.863281 244.027344 184.0625 249.351562 C 184.257812 250.210938 184.457031 251.085938 184.667969 251.964844 C 178.285156 260.828125 169.824219 272.6875 163.828125 281.816406 C 156.859375 285.390625 147.597656 290.242188 140.949219 294.386719 " fill-opacity="1" fill-rule="nonzero"/><path fill="#fd3ff4" d="M 103.851562 350.300781 C 103.695312 349.628906 103.539062 348.972656 103.394531 348.316406 C 102.480469 344.28125 101.742188 340.632812 101.171875 337.371094 C 104.941406 327.703125 110.046875 314.835938 114.273438 305.355469 C 119.421875 299.457031 126.382812 291.652344 132.027344 286.230469 C 132.703125 290.0625 133.570312 294.351562 134.644531 299.09375 C 134.820312 299.867188 134.996094 300.640625 135.179688 301.429688 C 130.527344 310.976562 124.382812 323.742188 120.109375 333.46875 C 115.0625 338.347656 108.394531 344.953125 103.851562 350.300781 " fill-opacity="1" fill-rule="nonzero"/><path fill="#fd3ff4" d="M 82.210938 411.191406 C 82.097656 410.691406 81.980469 410.199219 81.871094 409.707031 C 81.191406 406.695312 80.636719 403.96875 80.210938 401.53125 C 81.960938 391.625 84.371094 378.421875 86.585938 368.609375 C 89.644531 361.617188 93.816406 352.320312 97.460938 345.617188 C 98.015625 348.78125 98.738281 352.316406 99.621094 356.230469 C 99.761719 356.863281 99.910156 357.503906 100.0625 358.152344 C 97.265625 367.910156 93.597656 380.9375 91.195312 390.796875 C 88.285156 396.816406 84.5 404.910156 82.210938 411.191406 " fill-opacity="1" fill-rule="nonzero"/><path fill="#fd3ff4" d="M 77.304688 474.417969 C 77.234375 474.117188 77.164062 473.824219 77.09375 473.527344 C 76.683594 471.714844 76.351562 470.074219 76.09375 468.609375 C 75.664062 458.90625 75.179688 445.960938 75.25 436.25 C 76.074219 428.445312 77.253906 418.039062 78.667969 410.324219 C 79.074219 412.636719 79.597656 415.226562 80.246094 418.09375 C 80.351562 418.554688 80.460938 419.023438 80.570312 419.5 C 79.757812 429.015625 78.742188 441.707031 78.359375 451.25 C 77.828125 458.1875 77.234375 467.460938 77.304688 474.417969 " fill-opacity="1" fill-rule="nonzero"/><path fill="#fd3ff4" d="M 664.105469 315.035156 C 663.980469 314.605469 663.863281 314.199219 663.765625 313.816406 L 669.824219 325.167969 L 664.105469 315.035156 " fill-opacity="1" fill-rule="nonzero"/><path fill="#fd3ff4" d="M 626.984375 271.753906 C 626.265625 269.304688 625.617188 266.984375 625.039062 264.804688 C 630.613281 269.972656 637.972656 276.976562 643.058594 282.621094 C 648.097656 289.757812 654.773438 299.308594 659.46875 306.671875 C 659.636719 307.304688 659.824219 307.972656 660.03125 308.683594 C 655.875 303.425781 650.257812 296.453125 645.585938 291.652344 C 640.085938 285.609375 631.125 278.800781 626.984375 271.753906 " fill-opacity="1" fill-rule="nonzero"/><path fill="#fd3ff4" d="M 576.871094 239.492188 C 575.617188 235.230469 574.480469 231.179688 573.480469 227.375 C 580.359375 230.214844 589.5 234.125 596.078125 237.605469 C 602.992188 243.988281 612.179688 252.535156 618.871094 259.152344 C 619.507812 261.554688 620.222656 264.121094 621.015625 266.820312 C 615.320312 263.789062 607.640625 259.835938 601.632812 257.484375 C 594.253906 252.019531 582.222656 246.957031 576.871094 239.492188 " fill-opacity="1" fill-rule="nonzero"/><path fill="#fd3ff4" d="M 516.632812 218.878906 C 514.917969 213.050781 513.367188 207.523438 512.003906 202.335938 C 519.820312 202.867188 530.253906 203.695312 537.992188 204.929688 C 546.398438 210.363281 557.582031 217.648438 565.828125 223.324219 C 566.878906 227.320312 568.074219 231.585938 569.390625 236.074219 C 562.460938 235.304688 553.183594 234.394531 546.210938 234.324219 C 537.371094 229.625 525.570312 223.386719 516.632812 218.878906 " fill-opacity="1" fill-rule="nonzero"/><path fill="#fd3ff4" d="M 449.167969 210.527344 C 447.089844 203.464844 445.214844 196.753906 443.554688 190.460938 C 451.972656 188.738281 463.230469 186.527344 471.75 185.460938 C 481.25 189.71875 493.890625 195.445312 503.261719 199.984375 C 504.671875 205.339844 506.265625 211.042969 508.035156 217.054688 C 500.226562 218.53125 489.824219 220.613281 482.164062 222.714844 C 472.296875 218.972656 459.121094 214.03125 449.167969 210.527344 " fill-opacity="1" fill-rule="nonzero"/><path fill="#fd3ff4" d="M 304.066406 233.078125 C 301.617188 224.746094 299.402344 216.839844 297.449219 209.421875 C 306.09375 203.328125 317.671875 195.265625 326.628906 189.644531 C 337.046875 190.773438 350.933594 192.355469 361.289062 193.933594 C 363.167969 201.058594 365.292969 208.652344 367.648438 216.65625 C 359.144531 222.375 347.851562 230.074219 339.640625 236.195312 C 328.980469 235.113281 314.757812 233.738281 304.066406 233.078125 " fill-opacity="1" fill-rule="nonzero"/><path fill="#fd3ff4" d="M 234.050781 264.269531 C 231.628906 256.027344 229.4375 248.210938 227.503906 240.871094 C 235.28125 232.957031 245.722656 222.453125 253.890625 214.933594 C 264.03125 214.109375 277.578125 213.105469 287.753906 212.8125 C 289.714844 220.242188 291.929688 228.167969 294.390625 236.515625 C 286.085938 244.101562 275.070312 254.285156 267.105469 262.226562 C 257.179688 262.691406 243.945312 263.371094 234.050781 264.269531 " fill-opacity="1" fill-rule="nonzero"/><path fill="#fd3ff4" d="M 175.25 304.917969 C 172.996094 297.257812 170.960938 289.976562 169.164062 283.15625 C 175.363281 274.128906 183.707031 262.132812 190.285156 253.378906 C 198.863281 250.949219 210.328125 247.804688 219.042969 245.921875 C 220.960938 253.214844 223.140625 260.988281 225.550781 269.179688 C 218.644531 277.90625 209.488281 289.582031 202.910156 298.5625 C 194.578125 300.289062 183.460938 302.675781 175.25 304.917969 " fill-opacity="1" fill-rule="nonzero"/><path fill="#fd3ff4" d="M 129.457031 352.523438 C 127.492188 345.855469 125.722656 339.535156 124.164062 333.59375 C 128.667969 323.949219 134.742188 311.117188 139.613281 301.648438 C 146.335938 297.789062 155.375 292.730469 162.394531 289.433594 C 164.164062 296.160156 166.171875 303.335938 168.390625 310.890625 C 163.054688 320.214844 155.976562 332.675781 150.9375 342.167969 C 144.402344 345.082031 135.710938 349.054688 129.457031 352.523438 " fill-opacity="1" fill-rule="nonzero"/><path fill="#fd3ff4" d="M 98.015625 404.738281 C 96.457031 399.429688 95.046875 394.398438 93.804688 389.667969 C 96.472656 379.875 100.101562 366.835938 103.144531 357.152344 C 107.804688 352.070312 114.121094 345.355469 119.261719 340.761719 C 120.789062 346.554688 122.515625 352.734375 124.429688 359.238281 C 120.765625 368.667969 115.917969 381.265625 112.546875 390.808594 C 108.027344 394.8125 102.050781 400.242188 98.015625 404.738281 " fill-opacity="1" fill-rule="nonzero"/><path fill="#fd3ff4" d="M 82.277344 459.222656 C 81.203125 455.574219 80.230469 452.113281 79.382812 448.867188 C 80.066406 439.382812 81.058594 426.738281 82.152344 417.296875 C 84.570312 411.230469 87.90625 403.167969 90.945312 397.402344 C 92.140625 401.945312 93.5 406.785156 94.996094 411.886719 C 93.125 420.96875 90.667969 433.089844 89.125 442.234375 C 86.839844 447.230469 83.90625 453.976562 82.277344 459.222656 " fill-opacity="1" fill-rule="nonzero"/><path fill="#fd3ff4" d="M 83.578125 513.636719 C 83.0625 511.886719 82.597656 510.226562 82.1875 508.667969 C 80.738281 499.9375 78.886719 488.265625 77.917969 479.46875 C 77.953125 472.667969 78.078125 463.585938 78.734375 456.824219 C 79.53125 459.859375 80.4375 463.09375 81.441406 466.5 C 81.476562 474.808594 81.582031 485.894531 82.035156 494.191406 C 82.28125 500.039062 82.738281 507.847656 83.578125 513.636719 " fill-opacity="1" fill-rule="nonzero"/><path fill="#fd3ff4" d="M 85.886719 524.015625 L 84.550781 519.039062 L 83.921875 516.511719 C 84.269531 517.835938 84.664062 519.242188 85.101562 520.726562 L 87.535156 529.742188 C 87.035156 528.023438 86.359375 525.738281 85.886719 524.015625 " fill-opacity="1" fill-rule="nonzero"/><path fill="#fd3ff4" d="M 649.503906 299.804688 C 648.933594 298.089844 648.398438 296.4375 647.902344 294.847656 C 652.273438 299.730469 658.007812 306.347656 661.84375 311.652344 L 669.824219 325.167969 L 663.125 315.617188 C 659.125 310.796875 652.675781 305.203125 649.503906 299.804688 " fill-opacity="1" fill-rule="nonzero"/><path fill="#fd3ff4" d="M 608.746094 272.816406 C 607.4375 268.882812 606.210938 265.082031 605.070312 261.433594 C 610.855469 263.929688 618.542969 267.390625 623.996094 270.542969 C 629.769531 276.253906 637.4375 283.890625 642.996094 289.808594 C 643.582031 291.683594 644.210938 293.632812 644.878906 295.65625 C 640.417969 293.085938 634.378906 289.75 629.585938 287.867188 C 623.371094 283.300781 613.355469 279 608.746094 272.816406 " fill-opacity="1" fill-rule="nonzero"/><path fill="#fd3ff4" d="M 556.0625 255.894531 C 554.101562 250 552.261719 244.308594 550.5625 238.847656 C 557.40625 239.058594 566.554688 239.453125 573.335938 240.378906 C 580.914062 245.542969 591 252.453125 598.445312 257.804688 C 599.664062 261.703125 600.976562 265.773438 602.378906 269.984375 C 596.515625 269.652344 588.660156 269.34375 582.804688 269.71875 C 574.800781 265.53125 561.960938 262.726562 556.0625 255.894531 " fill-opacity="1" fill-rule="nonzero"/><path fill="#fd3ff4" d="M 494.226562 249.300781 C 491.726562 241.792969 489.386719 234.535156 487.210938 227.570312 C 494.820312 225.601562 504.996094 223.0625 512.738281 221.726562 C 521.726562 226.152344 533.703125 232.082031 542.601562 236.6875 C 544.371094 242.367188 546.285156 248.289062 548.320312 254.414062 C 541.414062 256.277344 532.226562 258.882812 525.503906 261.316406 C 516.136719 257.667969 503.636719 252.824219 494.226562 249.300781 " fill-opacity="1" fill-rule="nonzero"/><path fill="#fd3ff4" d="M 426.015625 253.324219 C 423.117188 244.601562 420.390625 236.167969 417.871094 228.085938 C 425.945312 224.039062 436.75 218.703125 445.0625 215.171875 C 455.054688 218.625 468.378906 223.273438 478.292969 226.953125 C 480.519531 234.085938 482.921875 241.523438 485.480469 249.21875 C 477.878906 253.144531 467.789062 258.46875 460.433594 262.835938 C 450.128906 259.921875 436.371094 256.0625 426.015625 253.324219 " fill-opacity="1" fill-rule="nonzero"/><path fill="#fd3ff4" d="M 354.199219 268.226562 C 351.058594 258.765625 348.109375 249.628906 345.378906 240.863281 C 353.621094 234.847656 364.664062 226.886719 373.191406 221.277344 C 383.765625 223.511719 397.863281 226.535156 408.371094 229.066406 C 410.929688 237.269531 413.6875 245.820312 416.632812 254.667969 C 408.65625 260.476562 398.058594 268.285156 390.335938 274.433594 C 379.507812 272.476562 365.066406 269.917969 354.199219 268.226562 " fill-opacity="1" fill-rule="nonzero"/><path fill="#fd3ff4" d="M 281.707031 294.210938 C 278.503906 284.574219 275.496094 275.257812 272.710938 266.324219 C 280.789062 258.507812 291.605469 248.125 299.988281 240.632812 C 310.703125 241.359375 324.984375 242.386719 335.667969 243.511719 C 338.414062 252.324219 341.386719 261.523438 344.542969 271.035156 C 336.476562 278.515625 325.757812 288.539062 317.933594 296.269531 C 307.070312 295.546875 292.585938 294.621094 281.707031 294.210938 " fill-opacity="1" fill-rule="nonzero"/><path fill="#fd3ff4" d="M 162.734375 368.734375 C 159.96875 360.417969 157.375 352.378906 154.976562 344.675781 C 160.179688 335.265625 167.171875 322.738281 172.667969 313.496094 C 180.851562 311.453125 191.792969 308.824219 200.085938 307.269531 C 202.726562 315.746094 205.582031 324.582031 208.621094 333.726562 C 202.660156 342.8125 194.75 354.953125 189.019531 364.1875 C 181.105469 365.402344 170.5625 367.070312 162.734375 368.734375 " fill-opacity="1" fill-rule="nonzero"/><path fill="#fd3ff4" d="M 122.03125 412.351562 C 119.726562 405.414062 117.554688 398.707031 115.550781 392.273438 C 119.109375 382.8125 123.910156 370.210938 127.753906 360.863281 C 134.015625 357.636719 142.425781 353.4375 148.9375 350.761719 C 151.296875 358.324219 153.835938 366.207031 156.550781 374.363281 C 152.082031 383.425781 146.148438 395.527344 141.890625 404.6875 C 135.867188 406.808594 127.84375 409.703125 122.03125 412.351562 " fill-opacity="1" fill-rule="nonzero"/><path fill="#fd3ff4" d="M 95.792969 457.539062 C 94.074219 452.355469 92.453125 447.347656 90.953125 442.542969 C 92.722656 433.480469 95.144531 421.410156 97.222656 412.410156 C 101.304688 408.167969 106.855469 402.578125 111.40625 398.835938 C 113.351562 405.070312 115.445312 411.570312 117.6875 418.300781 C 114.816406 426.886719 111.023438 438.34375 108.378906 447 C 104.457031 449.980469 99.261719 454.042969 95.792969 457.539062 " fill-opacity="1" fill-rule="nonzero"/><path fill="#fd3ff4" d="M 85.472656 502.304688 C 84.4375 499.1875 83.460938 496.171875 82.5625 493.28125 C 82.382812 485.058594 82.226562 474.082031 82.4375 465.859375 C 84.140625 460.808594 86.515625 454.074219 88.878906 449.296875 C 90.304688 453.859375 91.839844 458.625 93.476562 463.546875 C 92.332031 471.246094 90.835938 481.511719 89.980469 489.246094 C 88.386719 493.074219 86.378906 498.261719 85.472656 502.304688 " fill-opacity="1" fill-rule="nonzero"/><path fill="#fd3ff4" d="M 90.710938 539.785156 C 90.09375 537.90625 89.28125 535.402344 88.679688 533.515625 L 88.195312 531.9375 L 84.757812 518.894531 C 83.945312 513.230469 82.929688 505.65625 82.738281 499.9375 C 83.554688 502.554688 84.4375 505.285156 85.375 508.113281 C 86.074219 514.550781 87.050781 523.144531 88.179688 529.523438 C 88.925781 532.601562 89.71875 536.769531 90.710938 539.785156 " fill-opacity="1" fill-rule="nonzero"/><path fill="#fd3ff4" d="M 665.820312 320.183594 C 665.617188 319.640625 665.429688 319.105469 665.25 318.585938 L 669.824219 325.167969 L 665.820312 320.183594 " fill-opacity="1" fill-rule="nonzero"/><path fill="#fd3ff4" d="M 636.71875 301.019531 C 635.59375 297.914062 634.523438 294.882812 633.5 291.921875 C 637.996094 293.953125 643.976562 296.796875 648.113281 299.492188 C 652.328125 303.929688 657.925781 309.867188 661.914062 314.511719 C 662.210938 315.367188 662.519531 316.242188 662.84375 317.136719 C 659.816406 315.160156 655.683594 312.585938 652.296875 311.3125 C 647.648438 308.1875 640.210938 305.398438 636.71875 301.019531 " fill-opacity="1" fill-rule="nonzero"/><path fill="#fd3ff4" d="M 593.835938 290.519531 C 591.878906 285.113281 590 279.816406 588.222656 274.664062 C 593.910156 274.433594 601.527344 274.234375 607.199219 274.722656 C 613.535156 278.988281 621.964844 284.691406 628.203125 289.089844 C 629.335938 292.351562 630.523438 295.707031 631.757812 299.128906 C 627.136719 299.367188 620.953125 299.832031 616.414062 300.738281 C 609.644531 297.664062 600.617188 293.566406 593.835938 290.519531 " fill-opacity="1" fill-rule="nonzero"/><path fill="#fd3ff4" d="M 539.800781 288.558594 C 537.132812 281.175781 534.566406 273.949219 532.132812 266.90625 C 538.761719 264.585938 547.640625 261.5625 554.445312 259.832031 C 562.53125 263.769531 573.304688 269.039062 581.339844 273.082031 C 583.21875 278.507812 585.1875 284.078125 587.246094 289.769531 C 581.417969 292.152344 573.675781 295.441406 568.074219 298.316406 C 559.59375 295.382812 548.289062 291.472656 539.800781 288.558594 " fill-opacity="1" fill-rule="nonzero"/><path fill="#fd3ff4" d="M 408.84375 309.773438 C 405.214844 299.734375 401.738281 289.910156 398.429688 280.335938 C 406.136719 274.28125 416.457031 266.25 424.425781 260.535156 C 434.808594 263.242188 448.648438 266.875 458.988281 269.734375 C 462 278.4375 465.164062 287.378906 468.460938 296.5 C 461.164062 302.539062 451.46875 310.640625 444.394531 316.945312 C 433.738281 314.753906 419.527344 311.855469 408.84375 309.773438 " fill-opacity="1" fill-rule="nonzero"/><path fill="#fd3ff4" d="M 266.8125 362.800781 C 263.039062 352.363281 259.414062 342.136719 255.96875 332.1875 C 263.1875 323.421875 272.859375 311.777344 280.351562 303.25 C 291.230469 303.765625 305.734375 304.507812 316.597656 305.324219 C 320.085938 315.410156 323.753906 325.769531 327.578125 336.34375 C 319.917969 344.925781 309.730469 356.398438 302.273438 365.15625 C 291.640625 364.390625 277.457031 363.390625 266.8125 362.800781 " fill-opacity="1" fill-rule="nonzero"/><path fill="#fd3ff4" d="M 205.730469 396.578125 C 202.214844 386.863281 198.847656 377.351562 195.644531 368.089844 C 201.542969 358.9375 209.445312 346.75 215.566406 337.75 C 225.09375 337.308594 237.800781 336.789062 247.335938 336.683594 C 250.761719 346.578125 254.359375 356.742188 258.113281 367.121094 C 251.570312 376.007812 242.875 387.882812 236.507812 396.898438 C 227.273438 396.707031 214.960938 396.492188 205.730469 396.578125 " fill-opacity="1" fill-rule="nonzero"/><path fill="#fd3ff4" d="M 155.960938 432.242188 C 152.90625 423.792969 149.976562 415.519531 147.191406 407.46875 C 151.644531 398.386719 157.628906 386.292969 162.289062 377.3125 C 170.125 375.917969 180.59375 374.136719 188.496094 373.160156 C 191.652344 382.285156 194.972656 391.664062 198.4375 401.234375 C 193.179688 409.949219 186.191406 421.570312 181.0625 430.355469 C 173.523438 430.796875 163.46875 431.429688 155.960938 432.242188 " fill-opacity="1" fill-rule="nonzero"/><path fill="#fd3ff4" d="M 96.777344 502.835938 C 95.109375 498.214844 93.503906 493.6875 91.980469 489.285156 C 93.125 481.640625 94.703125 471.464844 96.109375 463.867188 C 99.695312 460.707031 104.582031 456.574219 108.570312 453.941406 C 110.703125 460.101562 112.949219 466.4375 115.28125 472.898438 C 112.953125 479.972656 109.859375 489.402344 107.667969 496.515625 C 104.300781 498.226562 99.800781 500.574219 96.777344 502.835938 " fill-opacity="1" fill-rule="nonzero"/><path fill="#fd3ff4" d="M 90.535156 534.566406 C 89.734375 532.351562 88.964844 530.175781 88.234375 528.0625 C 87.46875 521.75 86.53125 513.316406 86.160156 506.96875 C 87.226562 503.179688 88.753906 498.113281 90.503906 494.585938 C 91.929688 498.707031 93.429688 502.933594 94.988281 507.25 C 94.304688 512.941406 93.414062 520.535156 92.984375 526.253906 C 92 528.65625 90.8125 531.980469 90.535156 534.566406 " fill-opacity="1" fill-rule="nonzero"/><path fill="#fd3ff4" d="M 92.9375 546.207031 C 92.414062 544.71875 91.714844 542.726562 91.203125 541.238281 L 89.050781 532.957031 C 89.667969 534.75 90.324219 536.59375 91.003906 538.472656 C 91.777344 541.363281 92.613281 545.28125 93.628906 548.097656 L 92.9375 546.207031 " fill-opacity="1" fill-rule="nonzero"/><path fill="#fd3ff4" d="M 656.535156 319.253906 C 655.765625 317.273438 655.027344 315.320312 654.308594 313.390625 C 657.421875 314.78125 661.554688 316.804688 664.273438 318.859375 L 669.824219 325.167969 L 666.054688 323.554688 C 663.195312 322.269531 658.679688 321.535156 656.535156 319.253906 " fill-opacity="1" fill-rule="nonzero"/><path fill="#fd3ff4" d="M 624.886719 317.480469 C 623.132812 312.9375 621.425781 308.4375 619.777344 304.007812 C 624.191406 303.1875 630.121094 302.179688 634.609375 302.054688 C 639.402344 304.917969 645.792969 308.738281 650.546875 311.675781 C 651.394531 313.949219 652.273438 316.261719 653.171875 318.59375 C 649.867188 319.578125 645.480469 321.042969 642.386719 322.570312 C 637.128906 321.078125 630.113281 319.070312 624.886719 317.480469 " fill-opacity="1" fill-rule="nonzero"/><path fill="#fd3ff4" d="M 580.230469 322.757812 C 577.605469 315.957031 575.050781 309.222656 572.582031 302.589844 C 578.113281 299.769531 585.539062 296.054688 591.300781 293.738281 C 598.164062 296.625 607.320312 300.476562 614.183594 303.371094 C 615.949219 308.109375 617.777344 312.921875 619.652344 317.785156 C 615.007812 320.859375 608.867188 325.046875 604.472656 328.472656 C 597.195312 326.800781 587.488281 324.542969 580.230469 322.757812 " fill-opacity="1" fill-rule="nonzero"/><path fill="#fd3ff4" d="M 525.039062 334.558594 C 521.691406 325.886719 518.433594 317.300781 515.289062 308.847656 C 521.707031 304.1875 530.304688 298.027344 536.972656 293.730469 C 545.535156 296.507812 556.945312 300.210938 565.5 302.984375 C 568.066406 309.882812 570.722656 316.890625 573.457031 323.964844 C 567.761719 328.863281 560.214844 335.449219 554.75 340.597656 C 545.835938 338.820312 533.941406 336.425781 525.039062 334.558594 " fill-opacity="1" fill-rule="nonzero"/><path fill="#fd3ff4" d="M 461.804688 352.339844 C 457.914062 342.269531 454.132812 332.296875 450.476562 322.480469 C 457.527344 316.199219 466.960938 307.867188 474.242188 301.859375 C 484.09375 304.363281 497.222656 307.703125 507.0625 310.238281 C 510.289062 318.898438 513.628906 327.703125 517.058594 336.585938 C 510.566406 343.027344 501.949219 351.660156 495.644531 358.289062 C 485.492188 356.511719 471.953125 354.144531 461.804688 352.339844 " fill-opacity="1" fill-rule="nonzero"/><path fill="#fd3ff4" d="M 321.25 403.625 C 316.957031 392.496094 312.777344 381.476562 308.738281 370.625 C 316.273438 361.933594 326.347656 350.367188 334.046875 341.816406 C 345.207031 343.148438 360.089844 344.945312 371.226562 346.457031 C 375.210938 357.164062 379.339844 368.039062 383.578125 379.027344 C 376.183594 387.59375 366.335938 399.035156 359.03125 407.679688 C 347.699219 406.4375 332.59375 404.792969 321.25 403.625 " fill-opacity="1" fill-rule="nonzero"/><path fill="#fd3ff4" d="M 196.851562 463.125 C 193.144531 453.523438 189.539062 444.015625 186.054688 434.660156 C 191.304688 425.941406 198.332031 414.332031 203.699219 405.6875 C 212.871094 405.757812 225.097656 405.902344 234.265625 406.222656 C 238.101562 416.519531 242.0625 426.976562 246.144531 437.535156 C 240.21875 445.972656 232.332031 457.222656 226.464844 465.695312 C 217.585938 464.867188 205.746094 463.78125 196.851562 463.125 " fill-opacity="1" fill-rule="nonzero"/><path fill="#fd3ff4" d="M 150.507812 491.132812 C 147.414062 483.121094 144.402344 475.183594 141.496094 467.371094 C 145.386719 459.3125 150.597656 448.582031 154.585938 440.570312 C 162.027344 439.988281 171.964844 439.277344 179.429688 439.035156 C 182.847656 448.214844 186.386719 457.542969 190.019531 466.960938 C 185.292969 474.609375 178.984375 484.800781 174.265625 492.453125 C 167.140625 491.972656 157.640625 491.359375 150.507812 491.132812 " fill-opacity="1" fill-rule="nonzero"/><path fill="#fd3ff4" d="M 117.066406 516.386719 C 114.753906 510.402344 112.503906 504.476562 110.332031 498.640625 C 112.707031 491.628906 115.902344 482.292969 118.402344 475.316406 C 123.808594 474.054688 131.058594 472.464844 136.550781 471.632812 C 139.371094 479.207031 142.289062 486.898438 145.289062 494.667969 C 141.882812 501.144531 137.339844 509.789062 133.925781 516.265625 C 128.867188 516.191406 122.121094 516.121094 117.066406 516.386719 " fill-opacity="1" fill-rule="nonzero"/><path fill="#fd3ff4" d="M 98.265625 537.714844 C 96.878906 534.109375 95.527344 530.546875 94.21875 527.03125 C 94.898438 521.429688 95.859375 513.960938 96.753906 508.386719 C 99.800781 506.460938 103.964844 503.996094 107.289062 502.605469 C 109.359375 508.148438 111.492188 513.78125 113.6875 519.46875 C 111.746094 524.445312 109.164062 531.082031 107.253906 536.070312 C 104.535156 536.414062 100.882812 536.886719 98.265625 537.714844 " fill-opacity="1" fill-rule="nonzero"/><path fill="#fd3ff4" d="M 95.597656 553.332031 L 94.746094 551.109375 L 94.027344 549.175781 C 93.128906 545.90625 91.859375 541.558594 91.257812 538.21875 C 91.625 535.855469 92.214844 532.640625 93.296875 530.511719 C 94.484375 533.691406 95.707031 536.925781 96.96875 540.183594 C 96.613281 543.363281 96.144531 547.605469 96.027344 550.800781 C 95.761719 551.519531 95.394531 552.585938 95.597656 553.332031 " fill-opacity="1" fill-rule="nonzero"/><path fill="#fd3ff4" d="M 668.113281 326.121094 C 667.875 325.542969 667.636719 324.957031 667.410156 324.378906 L 669.824219 325.167969 L 668.113281 326.121094 " fill-opacity="1" fill-rule="nonzero"/><path fill="#fd3ff4" d="M 649.777344 334.820312 C 648.417969 331.5 647.085938 328.183594 645.773438 324.882812 C 648.703125 323.417969 652.664062 321.480469 655.816406 320.578125 C 658.699219 321.640625 662.542969 323.058594 665.457031 324.027344 C 665.839844 324.984375 666.222656 325.941406 666.617188 326.902344 C 664.859375 328.808594 662.578125 331.425781 661.023438 333.5 C 657.671875 334.054688 653.171875 334.671875 649.777344 334.820312 " fill-opacity="1" fill-rule="nonzero"/><path fill="#fd3ff4" d="M 570.898438 369.035156 C 567.664062 361.132812 564.480469 353.234375 561.363281 345.375 C 566.734375 340.222656 573.921875 333.378906 579.519531 328.476562 C 586.8125 330.046875 596.539062 332.125 603.863281 333.550781 C 606.261719 339.609375 608.714844 345.695312 611.210938 351.785156 C 606.726562 357.363281 600.78125 364.832031 596.464844 370.539062 C 588.792969 370.179688 578.554688 369.644531 570.898438 369.035156 " fill-opacity="1" fill-rule="nonzero"/><path fill="#fd3ff4" d="M 514.96875 392.597656 C 511.039062 383.015625 507.1875 373.4375 503.40625 363.910156 C 509.636719 357.285156 517.957031 348.464844 524.371094 342.019531 C 533.308594 343.710938 545.222656 345.957031 554.183594 347.546875 C 557.390625 355.652344 560.675781 363.800781 564.015625 371.953125 C 558.515625 378.925781 551.207031 388.242188 545.84375 395.316406 C 536.578125 394.566406 524.222656 393.53125 514.96875 392.597656 " fill-opacity="1" fill-rule="nonzero"/><path fill="#fd3ff4" d="M 246.632812 502.429688 C 242.375 492.039062 238.183594 481.644531 234.089844 471.308594 C 240.078125 462.878906 248.066406 451.640625 254.101562 443.242188 C 264.398438 444.335938 278.132812 445.808594 288.425781 446.976562 C 292.800781 458.019531 297.273438 469.125 301.820312 480.230469 C 295.324219 488.53125 286.65625 499.597656 280.144531 507.878906 C 270.089844 506.242188 256.683594 504.058594 246.632812 502.429688 " fill-opacity="1" fill-rule="nonzero"/><path fill="#fd3ff4" d="M 147.4375 541.480469 C 144.488281 534.285156 141.589844 527.089844 138.753906 519.933594 C 142.339844 513.53125 147.113281 504.996094 150.675781 498.582031 C 157.789062 499.066406 167.273438 499.757812 174.371094 500.457031 C 177.847656 509.226562 181.398438 518.050781 185.011719 526.871094 C 180.574219 532.859375 174.640625 540.832031 170.074219 546.726562 C 163.292969 545.121094 154.246094 542.984375 147.4375 541.480469 " fill-opacity="1" fill-rule="nonzero"/><path fill="#fd3ff4" d="M 116.242188 553.207031 C 114.21875 548.261719 112.222656 543.316406 110.273438 538.398438 C 112.40625 533.511719 115.246094 526.992188 117.375 522.105469 C 122.414062 522.160156 129.136719 522.308594 134.167969 522.648438 C 136.890625 529.527344 139.679688 536.445312 142.515625 543.363281 C 139.339844 547.726562 135.089844 553.539062 131.753906 557.785156 C 127.109375 556.378906 120.914062 554.511719 116.242188 553.207031 " fill-opacity="1" fill-rule="nonzero"/><path fill="#fd3ff4" d="M 99.875 558.742188 C 98.90625 556.371094 97.945312 553.996094 97.011719 551.636719 C 97.460938 548.542969 98.117188 544.429688 98.722656 541.363281 C 101.367188 540.945312 104.925781 540.515625 107.597656 540.480469 C 109.417969 545.074219 111.28125 549.691406 113.175781 554.316406 C 111.441406 556.789062 109.128906 560.097656 107.214844 562.433594 C 105.011719 561.332031 101.546875 560.554688 99.875 558.742188 " fill-opacity="1" fill-rule="nonzero"/><path fill="#fd3ff4" d="M 98.257812 559.96875 C 97.074219 557.074219 97.074219 557.074219 96.492188 555.613281 L 96.019531 554.40625 C 96.101562 553.996094 96.21875 553.457031 96.308594 553.050781 L 96.496094 552.945312 C 97.289062 554.945312 98.097656 556.960938 98.921875 558.96875 C 98.761719 559.359375 98.738281 560.042969 98.371094 560.253906 L 98.257812 559.96875 " fill-opacity="1" fill-rule="nonzero"/><path fill="#fd3ff4" d="M 665.070312 340.101562 C 664.214844 338.125 663.359375 336.121094 662.515625 334.113281 C 663.949219 331.972656 665.855469 329.097656 667.484375 327.097656 L 669.824219 325.167969 L 669.523438 331.886719 C 668.4375 334.476562 666.839844 337.925781 665.070312 340.101562 " fill-opacity="1" fill-rule="nonzero"/><path fill="#fd3ff4" d="M 644.488281 365.347656 C 642.515625 360.796875 640.5625 356.203125 638.625 351.59375 C 641.566406 347.496094 645.503906 342.042969 648.632812 338.082031 C 652.132812 337.644531 656.820312 337.035156 660.230469 336.121094 C 661.226562 338.484375 662.230469 340.84375 663.238281 343.183594 C 661.535156 347.929688 659.265625 354.269531 657.5625 359.023438 C 653.742188 361.117188 648.558594 363.796875 644.488281 365.347656 " fill-opacity="1" fill-rule="nonzero"/><path fill="#fd3ff4" d="M 609.582031 394.425781 C 606.625 387.613281 603.695312 380.742188 600.804688 373.839844 C 605.023438 368.070312 610.671875 360.390625 615.054688 354.742188 C 620.847656 354.730469 628.578125 354.675781 634.359375 354.300781 C 636.425781 359.234375 638.523438 364.144531 640.636719 369.015625 C 637.472656 375.363281 633.277344 383.824219 630.175781 390.199219 C 624.03125 391.628906 615.808594 393.441406 609.582031 394.425781 " fill-opacity="1" fill-rule="nonzero"/><path fill="#fd3ff4" d="M 300.382812 545.96875 C 295.75 535.285156 291.15625 524.503906 286.617188 513.675781 C 293.179688 505.40625 301.929688 494.371094 308.480469 486.089844 C 319.578125 487.585938 334.378906 489.5625 345.488281 490.980469 C 350.210938 502.25 354.996094 513.472656 359.820312 524.59375 C 352.90625 532.917969 343.683594 544.003906 336.695312 552.261719 C 325.792969 550.421875 311.257812 547.945312 300.382812 545.96875 " fill-opacity="1" fill-rule="nonzero"/><path fill="#fd3ff4" d="M 238.28125 564.296875 C 234.113281 554.679688 229.976562 544.976562 225.894531 535.234375 C 231.574219 528.011719 239.136719 518.371094 244.738281 511.085938 C 254.742188 512.8125 268.078125 515.113281 278.078125 516.832031 C 282.574219 527.546875 287.121094 538.21875 291.703125 548.792969 C 285.5 555.898438 277.203125 565.355469 270.859375 572.339844 C 261.082031 569.949219 248.042969 566.757812 238.28125 564.296875 " fill-opacity="1" fill-rule="nonzero"/><path fill="#fd3ff4" d="M 185.085938 575.570312 C 181.601562 567.539062 178.152344 559.441406 174.746094 551.3125 C 179.382812 545.460938 185.546875 537.644531 190.070312 531.703125 C 198.601562 533.480469 209.984375 535.867188 218.507812 537.695312 C 222.515625 547.253906 226.574219 556.773438 230.664062 566.207031 C 225.324219 571.804688 218.179688 579.253906 212.652344 584.660156 C 204.375 581.945312 193.34375 578.324219 185.085938 575.570312 " fill-opacity="1" fill-rule="nonzero"/><path fill="#fd3ff4" d="M 142.894531 579.460938 C 140.292969 573.464844 137.714844 567.414062 135.167969 561.34375 C 138.601562 557.160156 143.132812 551.546875 146.402344 547.238281 C 153.121094 548.9375 162.078125 551.226562 168.78125 553.003906 C 172.089844 560.882812 175.433594 568.734375 178.808594 576.511719 C 174.515625 580.363281 168.757812 585.46875 164.222656 589.03125 C 157.8125 586.175781 147.808594 584.464844 142.894531 579.460938 " fill-opacity="1" fill-rule="nonzero"/><path fill="#fd3ff4" d="M 113.8125 575.664062 C 112.242188 572.054688 110.691406 568.414062 109.164062 564.761719 C 111.191406 562.496094 113.84375 559.421875 115.683594 557.003906 C 120.253906 558.539062 126.34375 560.597656 130.890625 562.1875 C 133.316406 567.960938 135.765625 573.710938 138.234375 579.40625 C 135.171875 581.3125 131.046875 583.832031 127.734375 585.261719 C 123.523438 582.421875 116.988281 579.617188 113.8125 575.664062 " fill-opacity="1" fill-rule="nonzero"/><path fill="#fd3ff4" d="M 100.445312 565.136719 L 100.132812 564.410156 C 99.722656 563.445312 99.171875 562.164062 98.765625 561.199219 C 99.152344 561.027344 99.621094 560.664062 99.863281 560.3125 C 101.9375 561.65625 104.714844 563.417969 106.835938 564.6875 C 108.222656 567.996094 109.628906 571.292969 111.046875 574.5625 C 109.289062 574.402344 106.859375 574.042969 105.335938 573.15625 C 103.804688 570.785156 101.617188 567.699219 100.445312 565.136719 " fill-opacity="1" fill-rule="nonzero"/><path fill="#fd3ff4" d="M 670.691406 332.070312 C 670.441406 331.527344 670.1875 330.964844 669.9375 330.402344 L 669.824219 325.167969 L 670.691406 332.070312 " fill-opacity="1" fill-rule="nonzero"/><path fill="#fd3ff4" d="M 664.464844 368.644531 C 663.03125 365.539062 661.59375 362.371094 660.164062 359.164062 C 661.644531 354.304688 663.613281 347.824219 665.058594 342.957031 C 666.667969 340.386719 668.726562 336.835938 669.617188 333.933594 C 670.027344 334.859375 670.441406 335.773438 670.855469 336.675781 C 670.882812 342.257812 670.855469 349.707031 670.640625 355.285156 C 669.042969 359.398438 666.773438 364.882812 664.464844 368.644531 " fill-opacity="1" fill-rule="nonzero"/><path fill="#fd3ff4" d="M 138.125 603.617188 C 135.992188 598.988281 133.851562 594.269531 131.722656 589.484375 C 135.15625 587.980469 139.695312 585.84375 142.890625 583.886719 C 149.261719 586.980469 157.757812 591.09375 164.167969 594.113281 C 167.148438 600.804688 170.136719 607.410156 173.125 613.882812 C 168.746094 615.308594 162.859375 617.140625 158.320312 617.929688 C 152.214844 613.699219 142.8125 609.375 138.125 603.617188 " fill-opacity="1" fill-rule="nonzero"/><path fill="#fd3ff4" d="M 110.378906 582.929688 C 109.355469 580.710938 108.328125 578.449219 107.304688 576.148438 C 109.164062 576.917969 111.777344 577.828125 113.789062 577.847656 C 117.902344 581.011719 123.414062 585.195312 127.636719 588.210938 C 129.628906 592.679688 131.628906 597.09375 133.621094 601.410156 C 130.332031 600.632812 125.929688 599.445312 122.898438 597.953125 C 119.046875 593.527344 113.402344 587.960938 110.378906 582.929688 " fill-opacity="1" fill-rule="nonzero"/><path fill="#fd3ff4" d="M 102.25 569.199219 C 101.859375 568.324219 101.339844 567.171875 100.957031 566.296875 C 102.214844 568.535156 103.773438 571.605469 105.21875 573.730469 C 106.089844 575.679688 106.960938 577.597656 107.828125 579.480469 L 103.957031 572.914062 C 103.441406 571.800781 102.75 570.316406 102.25 569.199219 " fill-opacity="1" fill-rule="nonzero"/><path fill="#fd3ff4" d="M 674.007812 359.460938 C 673.207031 357.851562 672.375 356.144531 671.515625 354.335938 L 671.496094 354.289062 C 671.457031 348.582031 671.382812 340.972656 671.058594 335.273438 L 669.824219 325.167969 L 673.058594 339.398438 C 673.582031 345.402344 674.203125 353.4375 674.007812 359.460938 " fill-opacity="1" fill-rule="nonzero"/><path fill="#fd3ff4" d="M 673.105469 336.929688 C 672.90625 336.5625 672.695312 336.167969 672.476562 335.738281 L 669.824219 325.167969 L 673.105469 336.929688 " fill-opacity="1" fill-rule="nonzero"/><path fill="#fd3ff4" d="M 674.796875 339.613281 C 674.675781 339.46875 674.542969 339.289062 674.394531 339.078125 L 669.824219 325.167969 L 674.796875 339.613281 " fill-opacity="1" fill-rule="nonzero"/></svg>